<?xml version="1.0" standalone="no"?>
<!DOCTYPE svg PUBLIC "-//W3C//DTD SVG 20010904//EN"
 "http://www.w3.org/TR/2001/REC-SVG-20010904/DTD/svg10.dtd">
<svg version="1.0" xmlns="http://www.w3.org/2000/svg"
 width="700.000000pt" height="700.000000pt" viewBox="0 0 700.000000 700.000000"
 preserveAspectRatio="xMidYMid meet">
<metadata>
Created by potrace 1.11, written by Peter Selinger 2001-2013
</metadata>
<g transform="translate(0.000000,700.000000) scale(0.100000,-0.100000)"
fill="#000000" stroke="none">
<path d="M3080 6486 c-76 -20 -141 -59 -191 -115 -42 -47 -66 -97 -190 -385
-78 -182 -149 -349 -159 -371 -10 -22 -30 -69 -45 -105 -14 -36 -32 -78 -40
-95 -7 -16 -34 -79 -60 -140 -25 -60 -52 -123 -60 -140 -7 -16 -39 -91 -70
-165 -32 -74 -66 -153 -76 -175 -9 -22 -84 -195 -164 -385 -81 -190 -153 -358
-160 -375 -7 -16 -75 -174 -150 -350 -75 -176 -143 -336 -152 -355 -30 -67
-42 -97 -140 -325 -87 -205 -98 -237 -99 -295 -3 -75 18 -129 71 -183 72 -74
53 -72 604 -75 573 -3 574 -3 651 77 38 39 58 77 124 236 43 105 85 204 92
220 7 17 61 145 119 285 59 140 112 266 118 280 5 14 11 30 12 36 2 6 14 35
28 65 13 30 39 90 57 134 18 44 40 98 50 120 10 22 39 92 65 155 26 63 55 133
65 155 10 22 37 87 61 145 23 58 45 108 48 112 4 4 102 -223 220 -505 117
-282 219 -525 227 -542 21 -48 283 -678 298 -715 3 -8 79 -190 169 -405 l163
-390 -1690 -5 -1691 -5 -60 -24 c-137 -54 -231 -142 -294 -274 -21 -45 -92
-206 -157 -357 -105 -246 -118 -282 -122 -346 -12 -187 124 -362 305 -393 81
-13 5217 -13 5298 1 202 34 341 233 304 436 -6 29 -43 130 -83 225 -41 95
-138 323 -216 507 -78 184 -148 349 -155 365 -8 17 -32 75 -55 130 -23 55 -47
114 -55 130 -7 17 -52 120 -98 230 -47 110 -99 234 -117 275 -18 41 -75 176
-127 300 -52 124 -104 245 -115 269 -10 24 -28 65 -38 91 -10 26 -28 67 -38
91 -21 47 -49 111 -272 639 -78 184 -154 364 -170 400 -77 183 -144 338 -156
365 -12 27 -163 386 -364 860 -39 94 -77 184 -84 200 -144 328 -135 312 -197
369 -36 33 -81 63 -116 77 -57 23 -66 23 -468 25 -285 1 -424 -2 -455 -10z"/>
</g>
</svg>
